<svg t="1710665528955" class="icon" viewBox="0 0 1160 1024" version="1.1" xmlns="http://www.w3.org/2000/svg" p-id="9150" width="32" height="32"><path d="M229.831111 868.124444c-50.062222-23.893333-84.195556-75.093333-91.022222-134.257777-7.964444-71.68 5.688889-122.88 39.822222-160.426667 26.168889-28.444444 29.582222-40.96 27.306667-93.297778-3.413333-75.093333 27.306667-128.568889 89.884444-158.151111 30.72-14.791111 45.511111-29.582222 50.062222-52.337778 10.24-48.924444 65.991111-98.986667 111.502223-98.986666 76.231111 0 124.017778-21.617778 141.084444-63.715556 12.515556-29.582222 22.755556-38.684444 45.511111-38.684444 43.235556 0 93.297778 30.72 118.328889 71.68 23.893333 37.546667 29.582222 116.053333 12.515556 143.36-7.964444 12.515556 0 23.893333 31.857777 44.373333 61.44 39.822222 83.057778 81.92 79.644445 153.6-2.275556 51.2 1.137778 63.715556 27.306667 92.16 51.2 55.751111 56.888889 177.493333 10.24 243.484444-47.786667 65.991111-73.955556 70.542222-380.017778 70.542223-230.968889 0-282.168889-3.413333-314.026667-19.342223z" fill="#694F38" p-id="9151"></path><path d="M229.831111 868.124444c-50.062222-23.893333-84.195556-75.093333-91.022222-134.257777-7.964444-71.68 5.688889-122.88 39.822222-160.426667 26.168889-28.444444 29.582222-40.96 27.306667-93.297778-3.413333-75.093333 27.306667-128.568889 89.884444-158.151111 30.72-14.791111 45.511111-29.582222 50.062222-52.337778 10.24-48.924444 65.991111-98.986667 111.502223-98.986666 76.231111 0 124.017778-21.617778 141.084444-63.715556 12.515556-29.582222 22.755556-38.684444 45.511111-38.684444 43.235556 0 93.297778 30.72 118.328889 71.68 23.893333 37.546667 29.582222 116.053333 12.515556 143.36-7.964444 12.515556 0 23.893333 31.857777 44.373333 61.44 39.822222 83.057778 81.92 79.644445 153.6-2.275556 51.2 1.137778 63.715556 27.306667 92.16 51.2 55.751111 56.888889 177.493333 10.24 243.484444-47.786667 65.991111-73.955556 70.542222-380.017778 70.542223-230.968889 0-282.168889-3.413333-314.026667-19.342223z" fill="#464F53" p-id="9152"></path><path d="M253.724444 835.128889c-77.368889-38.684444-105.813333-141.084444-60.302222-215.04 21.617778-35.271111 70.542222-67.128889 117.191111-76.231111 37.546667-6.826667 13.653333-26.168889-28.444444-22.755556-42.097778 2.275556-43.235556 2.275556-43.235556-37.546666 0-77.368889 58.026667-142.222222 126.293334-142.222223 19.342222 0 22.755556-4.551111 18.204444-25.031111-7.964444-29.582222 18.204444-84.195556 47.786667-100.124444 12.515556-5.688889 40.96-11.377778 63.715555-11.377778 56.888889 0 117.191111-30.72 137.671111-69.404444 15.928889-31.857778 17.066667-32.995556 50.062223-15.928889 97.848889 51.2 87.608889 169.528889-17.066667 186.595555-68.266667 11.377778-52.337778 28.444444 31.857778 36.408889 67.128889 5.688889 83.057778 11.377778 112.64 42.097778 28.444444 27.306667 35.271111 44.373333 36.408889 84.195555l1.137777 48.924445-47.786666-3.413333c-38.684444-3.413333-48.924444 0-48.924445 13.653333 0 11.377778 10.24 18.204444 27.306667 18.204444 39.822222 0 101.262222 46.648889 125.155556 94.435556 36.408889 75.093333 0 163.84-79.644445 196.835555-58.026667 25.031111-519.964444 21.617778-570.026667-2.275555z m377.742223-106.951111c50.062222-23.893333 95.573333-85.333333 76.231111-104.675556-6.826667-6.826667-19.342222 1.137778-36.408889 23.893334-64.853333 92.16-194.56 89.884444-257.137778-3.413334-10.24-15.928889-22.755556-26.168889-28.444444-22.755555-17.066667 10.24-12.515556 23.893333 20.48 62.577777 56.888889 68.266667 142.222222 84.195556 225.28 44.373334zM432.355556 493.795556c12.515556-13.653333 11.377778-20.48-3.413334-36.408889-18.204444-17.066667-20.48-17.066667-38.684444 0-14.791111 15.928889-15.928889 22.755556-3.413334 36.408889 7.964444 10.24 18.204444 18.204444 22.755556 18.204444s14.791111-7.964444 22.755556-18.204444z m278.755555-15.928889c0-20.48-6.826667-29.582222-26.168889-31.857778-14.791111-2.275556-28.444444 3.413333-31.857778 13.653333-11.377778 29.582222 4.551111 54.613333 31.857778 50.062222 19.342222-2.275556 26.168889-11.377778 26.168889-31.857777z" fill="#C27A41" p-id="9153"></path></svg>