<svg t="1712493566097" class="icon" viewBox="0 0 1024 1024" version="1.1" xmlns="http://www.w3.org/2000/svg" p-id="4359" width="48" height="48"><path d="M224.985212 392.641939c40.851394-72.176485 92.811636-101.872485 155.834182-89.088 63.038061 12.784485 104.060121 32.426667 123.066182 58.911031 94.626909-55.668364 152.498424-75.310545 173.614545-58.911031 31.71297 24.591515 180.472242 55.761455 160.349091 172.435394-20.107636 116.673939-103.656727 308.177455-218.810182 325.957819-115.153455 17.780364-244.472242-6.516364-291.964121-57.468122-47.507394-50.982788-109.009455-82.97503-123.919515-147.642182-9.945212-43.116606-2.668606-111.181576 21.829818-204.194909z" fill="#F8D02D" p-id="4360"></path><path d="M360.168727 325.104485c-70.237091 0-108.792242 51.355152-119.776969 68.67006-61.362424 96.783515-14.475636 218.422303 59.221333 296.044607 77.187879 81.299394 207.515152 111.972848 316.974545 74.581333 112.360727-38.384485 190.712242-139.776 194.963394-252.291879l0.046546-0.713697c4.158061-65.706667-26.127515-173.692121-125.129697-183.714909-57.297455-5.802667-103.641212 20.898909-128.527515 35.250424-7.540364 4.344242-12.986182 7.493818-18.214788 9.557334l-1.582546 0.620606c-12.551758 4.964848-21.209212 6.206061-36.522666-0.496485-5.569939-2.435879-11.170909-4.809697-16.787394-7.183515l-4.949334-2.079031c-8.378182-3.55297-16.725333-7.369697-25.072484-11.170909-23.458909-10.736485-45.614545-20.867879-68.359758-24.777697a154.996364 154.996364 0 0 0-26.282667-2.296242m157.990788 511.767273c-97.435152 0-193.442909-38.36897-260.033939-108.497455-88.638061-93.385697-143.422061-242.315636-65.939394-364.528485 45.459394-71.68 121.762909-105.999515 203.993212-91.911757 30.099394 5.166545 56.738909 17.345939 82.494061 29.137454 7.866182 3.584 15.701333 7.168 23.58303 10.519273l4.902788 2.063515c4.437333 1.861818 8.874667 3.723636 13.280969 5.632 2.249697-1.194667 5.818182-3.258182 8.843637-4.995879 28.299636-16.321939 87.334788-50.20703 162.971151-42.620121 138.441697 14.010182 181.496242 156.237576 176.159031 242.889697-5.275152 135.431758-98.986667 257.194667-233.270303 303.057455a362.061576 362.061576 0 0 1-116.984243 19.238787" fill="#444444" p-id="4361"></path><path d="M504.195879 356.227879c-1.815273 0-3.677091-0.186182-5.554424-0.543031a28.175515 28.175515 0 0 1-22.49697-33.062787c28.842667-143.965091 120.180364-190.805333 172.06303-205.901576 56.630303-16.523636 69.538909-3.413333 73.774546 0.915394 3.428848 3.475394 5.895758 7.773091 7.136969 12.474182 0.977455 3.692606 23.691636 91.492848-8.73503 162.940121-6.438788 14.180848-23.334788 20.526545-37.763879 14.211879a27.989333 27.989333 0 0 1-14.429091-37.174303c14.894545-32.845576 13.746424-74.907152 9.991758-102.679273-38.136242 7.555879-120.444121 38.679273-145.966546 166.105212a28.485818 28.485818 0 0 1-28.020363 22.698667" fill="#444444" p-id="4362"></path><path d="M321.784242 590.522182c11.108848-0.977455 20.154182-9.619394 22.062546-21.038546 6.981818-40.711758 35.265939-73.774545 73.27806-85.674666a25.041455 25.041455 0 0 0 17.066667-18.618182 26.530909 26.530909 0 0 0-7.183515-24.777697 24.09503 24.09503 0 0 0-24.188121-5.926788c-55.854545 17.470061-97.404121 66.048-107.675152 125.858909-2.311758 13.994667 6.718061 27.368727 20.169697 29.882182 2.125576 0.387879 4.313212 0.48097 6.469818 0.294788z" fill="#444444" p-id="4363"></path></svg>